<svg xmlns="http://www.w3.org/2000/svg" viewBox="0 0 980 980" fill="none" shape-rendering="auto"><mask id="viewboxMask"><rect width="980" height="980" rx="0" ry="0" x="0" y="0" fill="#fff" /></mask><g mask="url(#viewboxMask)"><g transform="translate(10 -60)"><path d="M498 134c4 0 8 0 12 2 3 1 4 5 3 8-1 2-4 4-7 5l-8 9a98 98 0 0 1 62 1c14 5 28 12 40 21 10 7 20 15 31 21 14 8 30 14 46 17l40 8c19 3 37 8 54 17 15 7 30 16 40 29 7 10 9 22 5 34-5 11-15 19-22 29-2 4-6 9-6 13 1 5 6 9 9 12l34 19c8 5 15 11 20 19 6 7 9 16 8 25 0 6-2 13-5 18-3 7-10 12-16 17l-21 22c-6 8-11 20-7 30 2 5 4 11 10 13l21 10c23 15 38 43 38 71 0 19-7 37-20 51a62 62 0 0 1-47 18c-4-1-8-1-12 1-6 2-9 9-9 16 2 14 8 27 11 41 2 10 2 21-1 32-3 8-7 16-13 22-7 6-16 10-26 10-11 0-21-5-32-8a58 58 0 0 0-51 15c0 8 4 16 12 20 3 2 6 1 10 1 2 0 3 3 3 5-1 5-3 10-6 14a104 104 0 0 1-54 30l-15 1c-9 1-19 0-29-1-24-2-49-6-74-7-12 0-25 3-37 4l-17 4-29 4a264 264 0 0 1-103-15c-9-4-17-8-23-15-8-7-12-18-12-28l4-24c1-4 1-10-2-13-4-5-10-9-16-10-8-2-17-3-23-8-7-4-9-12-9-19-1-12 4-23 10-34l20-31 4-12 5-40c-9-5-19-10-27-17-6-4-10-9-14-15a72 72 0 0 1-15-44c-1-7 1-15-2-22-2-8-8-12-12-19l-15-20c-6-10-10-22-13-33-7-26-8-54 0-79 7-21 19-40 35-55l34-28 11-14c5-10 8-20 15-29 8-14 23-24 38-29 7-2 15-4 22-3 8 2 15 4 22 8a150 150 0 0 1 80-87c13-5 27-9 41-8Z" fill="currentColor"/><path d="M528 244c41 6 80 22 113 47 28 21 50 49 65 81 13 28 20 60 19 91-1 15-3 30-8 44h-2l1-21c1-30-2-59-13-87-10-30-28-57-50-79-42-40-98-62-156-63a243 243 0 0 0-196 94 207 207 0 0 0-40 139l2 25c8 0 19 0 25 7l-3 3-17 1c-12 1-24 5-33 13a64 64 0 0 0-17 39c-5 32 12 65 39 83 16 10 36 15 55 9 4-2 9-5 14-3 3 1 4 4 5 7a251 251 0 0 0 90 100c8 7 18 13 28 18 18 8 38 14 57 19l32 8c5 1 9 1 13 3l-4 1c-25 2-48-3-72-10-12-3-23-7-34-12a306 306 0 0 1-84-63l2 28c1 17 0 35-6 52-4 12-11 24-19 34-10 10-22 19-34 26-10 7-21 14-32 18l-16 5 9-9 31-20 22-17a95 95 0 0 0 32-56c2-14 2-28 2-43v-27c-10-14-22-29-27-46-17 8-38 7-55-1-17-7-32-19-43-33-12-17-19-36-21-56s2-40 15-56c9-10 22-18 35-21-4-14-6-29-6-44a234 234 0 0 1 83-173 249 249 0 0 1 199-55Z" fill="currentColor"/><path d="M653 320c22 22 40 49 50 79 11 28 14 57 13 87l-1 21-5 15-2 13 2 56c0 21 1 42-1 63l-3 47c-2 16-7 31-14 45-11 18-26 33-44 44-13 8-27 12-41 16l-38 11-17 3c0 1 1 2 3 2 8 5 17 5 26 4-3 7-4 14-2 22 3 7 11 11 17 14 12 6 24 7 36 9 7 6 14 14 16 24 2 8 2 16-2 23-5 10-14 18-24 23-13 8-27 14-42 18a468 468 0 0 1-222-1c-17-4-33-9-48-17-12-6-23-13-32-22-5-7-9-14-10-23 11-4 22-11 32-18 12-7 24-16 34-26 8-10 15-22 19-34 6-17 7-35 6-52l-2-28 22 23c19 15 40 30 62 40 11 5 22 9 34 12 24 7 47 12 72 10l4-1c-4-2-8-2-13-3l-32-8c-19-5-39-11-57-19l-29-17c-11-9-23-17-33-27a251 251 0 0 1-56-74c-1-3-2-6-5-7-5-2-10 1-14 3-19 6-39 1-55-9a88 88 0 0 1-39-83c1-14 7-28 17-39 9-8 21-12 33-13l17-1 3-3c-6-7-17-7-25-7l-2-25a207 207 0 0 1 40-139 243 243 0 0 1 196-94c58 1 114 23 156 63Z" fill="#1a1410"/><path d="M710 522c3 0 3 4 4 6 3 11 4 23 5 34l2 21c1 22 2 43 1 65-1 21-1 44-5 65a136 136 0 0 1-80 99c-15 7-31 11-48 13v15c1 3 3 4 5 6 12 6 23 8 36 11 12 3 24 5 36 11-3 3-7 4-11 4-7 1-15-1-23-1-12-2-24-3-36-9-6-3-14-7-17-14-2-8-1-15 2-22-9 1-18 1-26-4-2 0-3-1-3-2l17-3 38-11c14-4 28-8 41-16 18-11 33-26 44-44 7-14 12-29 14-45l3-47c2-21 1-42 1-63l-2-56 2-13ZM252 549c8 0 17 1 23 7 5 4 10 9 12 15 1 3 0 6-2 8l-13 8c-7 6-7 19 0 25 6 5 14 8 21 11 2 0 5 1 6 3-1 2-3 3-5 3-10 0-20-3-28-9-5-3-8-8-9-13-2-8-2-17 4-24 4-6 11-9 18-12-4-5-7-11-14-13-7-3-15-3-22-5l9-4Z" fill="currentColor"/><path d="m693 510-2 7c-3 5-6 9-11 12s-11 4-17 5l-18 2c-5 0-8 3-10 6l-7 7c-2 1-5-1-4-3 1-8 7-14 11-20 3-3 7-7 12-7l30-5c5-1 10-4 16-4ZM388 514c12-1 21 3 32 4 15 2 30 4 45 4l24 2c8 1 17 0 24 4s12 10 16 16c1 2 2 4 0 7-1 1-3 0-4-1-4-2-7-6-11-7l-12-1-28-1-22-1c-10-1-20-1-30-5-7-2-12-6-19-9l-12-9c-2-1-3-1-3-3Z" fill="currentColor"/><path d="m688 421 1 2-13 14c-7 6-14 10-22 14l-26 19-13 6-9 1-10 20-1 1-1-1c-2-5 0-13 1-19 2-6 2-12 8-16 3-3 7-3 10-5l31-20c8-6 16-11 25-13l19-3ZM371 430c9 0 19 0 28 2 9 1 17 4 26 6 5 2 10 1 15 2 8 0 15-1 23 2 8 2 16 3 23 6 12 3 24 5 35 11 0-2 0-4 2-6 2-1 5 0 6 2 5 7 8 17 11 25 1 4-2 9-6 9-5 1-8-4-12-6-5-2-7-7-12-9l-30-9-19-5-15-3-15-4-24-9-30-9-6-5Z" fill="currentColor"/><path d="M607 606c0 3-2 6-4 9-4 6-11 10-18 12-5 1-9-2-13 0-4 0-8 1-12-1-2-1-2-4 0-6 3-4 8-7 12-7 4-1 7-1 10 2l1 7c5-2 7-5 11-8l13-8Z" fill="currentColor"/><path fill-rule="evenodd" clip-rule="evenodd" d="M654 667c2-4 0-9-4-10-8-2-16-1-24-1l-57 6a445 445 0 0 1-56 5l-21 1a255 255 0 0 1-34-1c-4-1-8-1-12 1h1c0 2 1 3 3 3 8 3 16 4 25 5 1 4 3 7 7 9l11 7a503 503 0 0 1 5 3l23 10a175 175 0 0 0 31 8c7 2 14 3 22 2l21-5c6-2 12-5 17-9a129 129 0 0 0 26-23l8-8c3 0 6 0 8-3Zm-30 9 8-9a207 207 0 0 0-78 4l-4 1c-22 3-45 6-67 5l5 2 20 8c17 8 35 13 53 17 15 2 30-2 43-8 8-5 14-12 20-20Z" fill="currentColor"/><path d="M507 135c3 0 6 2 7 6 0 4-4 6-6 8-4 2-7 5-10 9a99 99 0 0 1 60 1c15 5 29 12 42 21 10 7 21 15 32 21 8 5 17 9 26 12 18 6 36 8 55 12a226 226 0 0 1 82 32c8 6 15 13 19 22 5 9 5 21 0 30-5 10-14 17-20 26-2 4-6 9-6 13 1 5 5 8 8 11 15 11 34 17 47 30 10 8 17 20 16 33 0 8-3 17-8 23-5 7-12 13-18 19-8 7-16 15-21 24-3 7-5 17-1 24 3 8 12 13 19 16 5 2 10 4 14 8 1 3 1 7-1 10-5 6-13 11-21 13-16 5-33 4-49-1-13-3-24-8-34-16-9-6-16-15-21-25-10-16-13-35-14-54v-33l-1-6c-6-5-13-9-21-10-11-2-22-3-33-8-7-3-12-9-16-15s-5-13-7-20l-6-17c-1-4-5-8-10-11-4-3-10-2-14-1-7 3-14 5-22 5-15 0-31-2-45-10-8-5-14-13-17-22-4-7-4-14-6-22-6 8-12 17-21 23 5 17 2 35-7 50-7 13-17 24-28 34l-31 22c-18 13-36 24-50 41-6 9-13 20-13 31 0 6 4 9 6 14 4 7 6 17 5 25-3 11-12 20-16 30-3 9-5 19-2 28 2 8 7 15 14 19l13 5h11c3 0 4 3 3 5l-5 8-17 7c-9 3-19 4-29 4-8 0-17-2-25-4-9-3-18-8-27-13-7-4-15-9-21-15a76 76 0 0 1-24-60c0-6 0-11-2-17-2-8-8-12-12-19l-14-19a153 153 0 0 1-15-108 129 129 0 0 1 41-65l29-23c5-4 8-9 11-15 6-9 9-19 15-28 8-14 23-24 39-29 6-2 14-4 21-3 8 2 15 4 22 8a149 149 0 0 1 74-84c6-3 12-6 18-7 12-4 25-5 38-3Z" fill="currentColor"/></g><g transform="translate(10 -60)"></g></g></svg>